<svg width="162" height="28" viewBox="0 0 162 28" fill="none" xmlns="http://www.w3.org/2000/svg">
<path d="M44.3868 20V11.78L44.3068 9.84H44.4668L45.2868 11.78L48.9868 19.2H51.5868L55.2868 11.78L56.1068 9.84H56.2668L56.1868 11.78V20H58.3468V6.6H55.4068L51.5868 14.36L50.4068 17.14H50.2468L49.0268 14.36L45.1668 6.6H42.2268V20H44.3868ZM63.2718 20.2C65.5318 20.2 67.1118 19.2 67.6318 17.52H67.7718V20H69.7518V13.96C69.7518 11.58 68.3318 9.86 65.1718 9.86C62.0118 9.86 60.1318 11.56 60.1318 13.82V13.9H62.2718V13.82C62.2718 12.36 63.1718 11.76 65.0118 11.76C66.9118 11.76 67.6318 12.34 67.6318 13.98V14.56L63.1118 15.04C61.1518 15.26 59.9118 16.06 59.9118 17.6C59.9118 19.24 61.2118 20.2 63.2718 20.2ZM62.0718 17.46C62.0718 16.68 62.6118 16.42 63.7318 16.28L67.6318 15.84C67.6318 17.8 66.1118 18.64 63.8518 18.64C62.6118 18.64 62.0718 18.26 62.0718 17.46ZM73.8399 20V15.08C73.8399 12.92 74.8199 11.8 76.9999 11.8C79.0599 11.8 79.8999 12.74 79.8999 14.6V20H82.0599V14.02C82.0599 11.72 80.6999 9.86 77.9399 9.86C75.4199 9.86 74.0999 11.46 73.7999 13.14H73.6599V10.06H71.6799V20H73.8399ZM86.9046 20.2C89.1646 20.2 90.7446 19.2 91.2646 17.52H91.4046V20H93.3846V13.96C93.3846 11.58 91.9646 9.86 88.8046 9.86C85.6446 9.86 83.7646 11.56 83.7646 13.82V13.9H85.9046V13.82C85.9046 12.36 86.8046 11.76 88.6446 11.76C90.5446 11.76 91.2646 12.34 91.2646 13.98V14.56L86.7446 15.04C84.7846 15.26 83.5446 16.06 83.5446 17.6C83.5446 19.24 84.8446 20.2 86.9046 20.2ZM85.7046 17.46C85.7046 16.68 86.2446 16.42 87.3646 16.28L91.2646 15.84C91.2646 17.8 89.7446 18.64 87.4846 18.64C86.2446 18.64 85.7046 18.26 85.7046 17.46ZM99.6327 19.1C101.893 19.1 103.233 18.02 103.593 16.52H103.733V18.96C103.733 21.18 102.913 21.8 100.653 21.8C98.5327 21.8 97.6927 21.26 97.6927 19.82H95.5527C95.5527 22.22 97.5927 23.6 100.533 23.6C103.793 23.6 105.873 22.18 105.873 18.84V10.06H103.893V12.54H103.773C103.413 10.8 101.853 9.86 99.7727 9.86C96.7527 9.86 94.9127 11.72 94.9127 14.48C94.9127 17.24 96.6727 19.1 99.6327 19.1ZM97.0927 14.48C97.0927 12.44 98.3127 11.74 100.393 11.74C102.493 11.74 103.733 12.6 103.733 14.28V14.56C103.733 16.32 102.533 17.24 100.333 17.24C98.2927 17.24 97.0927 16.52 97.0927 14.48ZM112.871 20.2C115.831 20.2 117.911 18.74 117.911 16.62V16.44H115.751V16.6C115.751 17.78 114.891 18.46 112.811 18.46C110.511 18.46 109.571 17.44 109.491 15.52H117.931C117.991 15.22 118.011 14.94 118.011 14.58C118.011 11.56 115.911 9.86 112.831 9.86C109.591 9.86 107.471 11.94 107.471 15.04C107.471 18.36 109.611 20.2 112.871 20.2ZM112.791 11.56C114.911 11.56 115.971 12.44 115.971 14.28V14.32H109.511C109.631 12.54 110.591 11.56 112.791 11.56ZM121.789 20V14.22H129.669V20H131.809V6.6H129.669V12.28H121.789V6.6H119.629V20H121.789ZM137.968 20.2C140.528 20.2 141.848 18.6 142.168 16.92H142.288V20H144.268V10.06H142.128V14.98C142.128 17.14 141.108 18.26 138.908 18.26C136.808 18.26 135.948 17.32 135.948 15.46V10.06H133.808V16.04C133.808 18.34 135.168 20.2 137.968 20.2ZM148.211 20V17.14H148.351C148.771 19.12 150.231 20.2 152.491 20.2C155.651 20.2 157.351 18.1 157.351 15.04C157.351 11.94 155.671 9.86 152.611 9.86C150.231 9.86 148.911 11.08 148.511 12.76H148.391V6.6H146.231V20H148.211ZM148.391 15.14V14.98C148.391 12.86 149.611 11.82 151.851 11.82C153.971 11.82 155.191 12.64 155.191 15.04C155.191 17.42 153.991 18.22 151.811 18.22C149.671 18.22 148.391 17.22 148.391 15.14ZM161.168 20V16.9H158.448V20H161.168Z" fill="url(#paint0_linear_209_2119)"/>
<rect x="6.50525" y="3.46167" width="7.86371" height="18.8998" rx="3.93186" transform="rotate(20.1327 6.50525 3.46167)" fill="url(#paint1_linear_209_2119)"/>
<rect x="18.3937" y="3" width="7.86371" height="18.8998" rx="3.93186" transform="rotate(20.1327 18.3937 3)" fill="url(#paint2_linear_209_2119)"/>
<rect x="26.4562" y="13.4363" width="7.86371" height="7.78423" rx="3.89212" transform="rotate(20.1327 26.4562 13.4363)" fill="url(#paint3_linear_209_2119)"/>
<defs>
<linearGradient id="paint0_linear_209_2119" x1="101.5" y1="0" x2="101.5" y2="44.9046" gradientUnits="userSpaceOnUse">
<stop stop-color="#505AE9"/>
<stop offset="1" stop-color="#101561"/>
</linearGradient>
<linearGradient id="paint1_linear_209_2119" x1="10.4371" y1="3.46167" x2="10.4371" y2="33.772" gradientUnits="userSpaceOnUse">
<stop stop-color="#505AE9"/>
<stop offset="1" stop-color="#101561"/>
</linearGradient>
<linearGradient id="paint2_linear_209_2119" x1="22.3255" y1="3" x2="22.3255" y2="33.3103" gradientUnits="userSpaceOnUse">
<stop stop-color="#505AE9"/>
<stop offset="1" stop-color="#101561"/>
</linearGradient>
<linearGradient id="paint3_linear_209_2119" x1="30.388" y1="13.4363" x2="30.388" y2="25.9201" gradientUnits="userSpaceOnUse">
<stop stop-color="#505AE9"/>
<stop offset="1" stop-color="#101561"/>
</linearGradient>
</defs>
</svg>
