<svg width="165" height="28" viewBox="0 0 165 28" fill="none" xmlns="http://www.w3.org/2000/svg">
<path d="M47.1602 20V11.78L47.0802 9.84H47.2402L48.0602 11.78L51.7602 19.2H54.3602L58.0602 11.78L58.8802 9.84H59.0402L58.9602 11.78V20H61.1202V6.6H58.1802L54.3602 14.36L53.1802 17.14H53.0202L51.8002 14.36L47.9402 6.6H45.0002V20H47.1602ZM66.0452 20.2C68.3052 20.2 69.8852 19.2 70.4052 17.52H70.5452V20H72.5252V13.96C72.5252 11.58 71.1052 9.86 67.9452 9.86C64.7852 9.86 62.9052 11.56 62.9052 13.82V13.9H65.0452V13.82C65.0452 12.36 65.9452 11.76 67.7852 11.76C69.6852 11.76 70.4052 12.34 70.4052 13.98V14.56L65.8852 15.04C63.9252 15.26 62.6852 16.06 62.6852 17.6C62.6852 19.24 63.9852 20.2 66.0452 20.2ZM64.8452 17.46C64.8452 16.68 65.3852 16.42 66.5052 16.28L70.4052 15.84C70.4052 17.8 68.8852 18.64 66.6252 18.64C65.3852 18.64 64.8452 18.26 64.8452 17.46ZM76.6134 20V15.08C76.6134 12.92 77.5934 11.8 79.7734 11.8C81.8334 11.8 82.6734 12.74 82.6734 14.6V20H84.8334V14.02C84.8334 11.72 83.4734 9.86 80.7134 9.86C78.1934 9.86 76.8734 11.46 76.5734 13.14H76.4334V10.06H74.4534V20H76.6134ZM89.6781 20.2C91.9381 20.2 93.5181 19.2 94.0381 17.52H94.1781V20H96.1581V13.96C96.1581 11.58 94.7381 9.86 91.5781 9.86C88.4181 9.86 86.5381 11.56 86.5381 13.82V13.9H88.6781V13.82C88.6781 12.36 89.5781 11.76 91.4181 11.76C93.3181 11.76 94.0381 12.34 94.0381 13.98V14.56L89.5181 15.04C87.5581 15.26 86.3181 16.06 86.3181 17.6C86.3181 19.24 87.6181 20.2 89.6781 20.2ZM88.4781 17.46C88.4781 16.68 89.0181 16.42 90.1381 16.28L94.0381 15.84C94.0381 17.8 92.5181 18.64 90.2581 18.64C89.0181 18.64 88.4781 18.26 88.4781 17.46ZM102.406 19.1C104.666 19.1 106.006 18.02 106.366 16.52H106.506V18.96C106.506 21.18 105.686 21.8 103.426 21.8C101.306 21.8 100.466 21.26 100.466 19.82H98.3262C98.3262 22.22 100.366 23.6 103.306 23.6C106.566 23.6 108.646 22.18 108.646 18.84V10.06H106.666V12.54H106.546C106.186 10.8 104.626 9.86 102.546 9.86C99.5262 9.86 97.6862 11.72 97.6862 14.48C97.6862 17.24 99.4462 19.1 102.406 19.1ZM99.8662 14.48C99.8662 12.44 101.086 11.74 103.166 11.74C105.266 11.74 106.506 12.6 106.506 14.28V14.56C106.506 16.32 105.306 17.24 103.106 17.24C101.066 17.24 99.8662 16.52 99.8662 14.48ZM115.645 20.2C118.605 20.2 120.685 18.74 120.685 16.62V16.44H118.525V16.6C118.525 17.78 117.665 18.46 115.585 18.46C113.285 18.46 112.345 17.44 112.265 15.52H120.705C120.765 15.22 120.785 14.94 120.785 14.58C120.785 11.56 118.685 9.86 115.605 9.86C112.365 9.86 110.245 11.94 110.245 15.04C110.245 18.36 112.385 20.2 115.645 20.2ZM115.565 11.56C117.685 11.56 118.745 12.44 118.745 14.28V14.32H112.285C112.405 12.54 113.365 11.56 115.565 11.56ZM124.563 20V14.22H132.443V20H134.583V6.6H132.443V12.28H124.563V6.6H122.403V20H124.563ZM140.742 20.2C143.302 20.2 144.622 18.6 144.942 16.92H145.062V20H147.042V10.06H144.902V14.98C144.902 17.14 143.882 18.26 141.682 18.26C139.582 18.26 138.722 17.32 138.722 15.46V10.06H136.582V16.04C136.582 18.34 137.942 20.2 140.742 20.2ZM150.984 20V17.14H151.124C151.544 19.12 153.004 20.2 155.264 20.2C158.424 20.2 160.124 18.1 160.124 15.04C160.124 11.94 158.444 9.86 155.384 9.86C153.004 9.86 151.684 11.08 151.284 12.76H151.164V6.6H149.004V20H150.984ZM151.164 15.14V14.98C151.164 12.86 152.384 11.82 154.624 11.82C156.744 11.82 157.964 12.64 157.964 15.04C157.964 17.42 156.764 18.22 154.584 18.22C152.444 18.22 151.164 17.22 151.164 15.14ZM163.941 20V16.9H161.221V20H163.941Z" fill="url(#paint0_linear_209_2082)"/>
<rect x="6.50525" y="3.46167" width="7.86371" height="18.8998" rx="3.93186" transform="rotate(20.1327 6.50525 3.46167)" fill="url(#paint1_linear_209_2082)"/>
<rect x="18.3937" y="3" width="7.86371" height="18.8998" rx="3.93186" transform="rotate(20.1327 18.3937 3)" fill="url(#paint2_linear_209_2082)"/>
<rect x="26.4562" y="13.4363" width="7.86371" height="7.78423" rx="3.89212" transform="rotate(20.1327 26.4562 13.4363)" fill="url(#paint3_linear_209_2082)"/>
<defs>
<linearGradient id="paint0_linear_209_2082" x1="104.5" y1="5.5" x2="104.5" y2="44.9046" gradientUnits="userSpaceOnUse">
<stop stop-color="white"/>
<stop offset="1" stop-color="#5C5C5C"/>
</linearGradient>
<linearGradient id="paint1_linear_209_2082" x1="10.4371" y1="3.46167" x2="10.4371" y2="33.772" gradientUnits="userSpaceOnUse">
<stop stop-color="white"/>
<stop offset="1" stop-color="#5C5C5C"/>
</linearGradient>
<linearGradient id="paint2_linear_209_2082" x1="22.3255" y1="3" x2="22.3255" y2="33.3103" gradientUnits="userSpaceOnUse">
<stop stop-color="white"/>
<stop offset="1" stop-color="#5C5C5C"/>
</linearGradient>
<linearGradient id="paint3_linear_209_2082" x1="30.388" y1="13.4363" x2="30.388" y2="25.9201" gradientUnits="userSpaceOnUse">
<stop stop-color="white"/>
<stop offset="1" stop-color="#5C5C5C"/>
</linearGradient>
</defs>
</svg>
